<svg fill="none" xmlns="http://www.w3.org/2000/svg" viewBox="0 0 16 16">
  <path d="M15.845 6.433H15.2V6.4H8v3.2h4.521A4.798 4.798 0 013.2 8 4.8 4.8 0 018 3.2c1.224 0 2.337.462 3.184 1.216l2.263-2.263A7.963 7.963 0 008 0a8 8 0 107.845 6.433z" fill="#FFC107"/>
  <path d="M.922 4.276L3.55 6.204A4.798 4.798 0 018 3.2c1.223 0 2.336.462 3.184 1.216l2.263-2.263A7.963 7.963 0 007.999 0 7.995 7.995 0 00.922 4.276z" fill="#FF3D00"/>
  <path d="M8 16c2.066 0 3.944-.79 5.364-2.076l-2.476-2.096A4.764 4.764 0 018 12.8a4.798 4.798 0 01-4.513-3.178l-2.609 2.01A7.994 7.994 0 008 16z" fill="#4CAF50"/>
  <path d="M15.844 6.433H15.2V6.4H8v3.2h4.521a4.817 4.817 0 01-1.635 2.229l.002-.001 2.476 2.095C13.188 14.083 16 12 16 8c0-.536-.055-1.06-.156-1.567z" fill="#1976D2"/>
</svg>
